<svg xmlns="http://www.w3.org/2000/svg" width="21.306122448979593" height="20.816326530612244" fill="currentColor" style=""><rect id="backgroundrect" width="100%" height="100%" x="0" y="0" fill="none" stroke="none" class="" style=""/>
  
  
<g class="currentLayer" style=""><title>Layer 1</title><path d="M11.20139317959547,6.642307370901108 a3,3 0 1 1 -6,0 a3,3 0 0 1 6,0 z" id="svg_1" class="" fill="#ffffff" fill-opacity="1"/><path d="M11.93608670681715,6.764756272641989 a3.3673467636108403,3.1224489212036133 0 1 1 -6.73469352722168,0 a3.3673467636108403,3.1224489212036133 0 0 1 6.73469352722168,0 z" class="" fill="#ffffff" fill-opacity="1" id="svg_3"/><path fill-rule="evenodd" d="M0.28302583136174336,8.418580729379983 a8.40547444698268,8.34348715482679 0 1 1 16.81094889396536,0 A8.40547444698268,8.34348715482679 0 0 1 0.28302583136174336,8.418580729379983 zm8.40547444698268,-7.300551260473441 a7.354790141109845,7.300551260473441 0 0 0 -5.745141784512661,11.858181118797575 C3.6893443510014756,11.783091924563884 5.331563921080715,10.50445251808668 8.688500278344423,10.50445251808668 s4.998105243037076,1.2775964705828522 5.745141784512661,2.4717580696174366 A7.354790141109845,7.300551260473441 0 0 0 8.688500278344423,1.1180294689065424 z" id="svg_2" class="" fill="#ffffff" fill-opacity="1"/></g></svg>